<?xml version="1.0" encoding="utf-8"?>
<!-- Generator: Adobe Illustrator 24.3.0, SVG Export Plug-In . SVG Version: 6.00 Build 0)  -->
<svg version="1.1" xmlns="http://www.w3.org/2000/svg" xmlns:xlink="http://www.w3.org/1999/xlink" x="0px" y="0px"
	 viewBox="0 0 487.44 169.64" style="enable-background:new 0 0 487.44 169.64;" xml:space="preserve">
<style type="text/css">
	.st0{display:none;}
	.st1{display:inline;}
	.st2{display:inline;fill:#800000;}
	.st3{fill:#800000;}
	.st4{fill:#737373;}
	.st5{fill:#FFFFFF;}
</style>
<g id="DOES_NOT_PRINT" class="st0">
</g>
<g id="Logo">
	<path class="st3" d="M442.39,50.28l0.03-0.05l0-0.06c-0.05-0.97-0.08-2.23-0.08-3.53v-0.26l-0.25,0.06
		c-0.33,0.07-1.98,0.07-3.58,0.07h-4.94c-1.01,0-1.91-0.02-3.1-0.08l-0.05,0l-0.05,0.02c-0.22,0.11-0.26,0.42-0.27,0.52
		c-0.02,0.23,0.05,0.42,0.19,0.51l0.52,0.09c1.36,0.16,1.43,0.31,1.43,3.18v9.67c0,2.84-0.07,2.99-1.43,3.15l-0.74,0.09L430,63.71
		c-0.15,0.15-0.18,0.4-0.15,0.58c0.03,0.2,0.12,0.35,0.25,0.42l0.05,0.02l0.05,0c1.26-0.05,2.16-0.08,3.35-0.08
		c1.08,0,2.01,0.03,3.57,0.08l0.05,0l0.05-0.02c0.18-0.09,0.25-0.33,0.26-0.52c0.01-0.23-0.05-0.42-0.19-0.5l-1.01-0.11
		c-1.37-0.12-1.45-0.29-1.45-3.15v-3.73c0-0.52,0-0.52,0.68-0.52h1.83c0.94,0,1.65,0.02,2,0.12c0.38,0.12,0.58,0.37,0.72,0.87
		l0.28,1.11l0.05,0.04c0.26,0.23,0.84,0.22,1-0.04l0.04-0.05v-0.06c0-0.28-0.02-0.64-0.04-1.04c-0.03-0.49-0.06-1.04-0.06-1.57
		c0-0.54,0.03-1.12,0.06-1.63c0.02-0.42,0.04-0.79,0.04-1.09v-0.06l-0.04-0.05c-0.13-0.19-0.4-0.21-0.51-0.21
		c-0.22,0-0.42,0.07-0.52,0.19l-0.28,1.16c-0.15,0.65-0.33,0.72-0.54,0.79c-0.28,0.09-1.11,0.15-2.22,0.15h-1.83
		c-0.68,0-0.68,0-0.68-0.52v-5.67c0-0.87,0-0.87,0.6-0.87h1.64c1.11,0,1.99,0,2.55,0.16c1.15,0.3,1.5,1.07,1.73,2.39l0.01,0.07
		l0.06,0.05c0.1,0.09,0.25,0.14,0.41,0.14C442.04,50.56,442.29,50.47,442.39,50.28L442.39,50.28z M424.36,55.5
		c0-4.54-2.98-9.42-9.53-9.42c-5.57,0-9.77,4.17-9.77,9.69c0,4.63,3.36,9.31,9.77,9.31C420.27,65.09,424.36,60.97,424.36,55.5
		L424.36,55.5z M421.26,56.34c0,5.54-3.28,7.5-6.08,7.5c-5.54,0-7.02-5.61-7.02-8.93c0-5.6,3.35-7.58,6.22-7.58
		C419.46,47.33,421.26,52.18,421.26,56.34L421.26,56.34z M397.64,102.25c0,11.6,8.64,21.85,22.95,21.85
		c12.44,0,22.37-9.48,22.37-22.5c0-11.34-7.48-22.11-22.37-22.11C407.31,79.49,397.64,89.36,397.64,102.25L397.64,102.25z
		 M404.09,100.19c0-14.12,8.7-18.69,15.41-18.69c12.31,0,17.02,11.47,17.02,22.11c0,12.7-7.35,18.5-15.08,18.5
		C408.73,122.1,404.09,109.73,404.09,100.19L404.09,100.19z M391.49,47.47c0.14-0.12,0.21-0.31,0.19-0.52
		c-0.02-0.21-0.12-0.39-0.27-0.48l-0.06-0.04l-0.06,0c-1.91,0.11-3.04,0.11-5.05,0l-0.05,0l-0.05,0.02
		c-0.15,0.08-0.25,0.23-0.28,0.41c-0.04,0.22,0.03,0.44,0.18,0.59l0.05,0.05l0.55,0.06c0.52,0.06,0.85,0.19,0.94,0.26
		c-0.08,0.38-1.02,2.13-1.59,3.19l-0.12,0.23c-0.65,1.25-1.39,2.6-2.34,4.22c-0.71-1.28-1.4-2.69-2.07-4.05
		c-0.26-0.53-0.52-1.07-0.79-1.59c-0.19-0.39-0.8-1.76-0.81-1.98c0-0.05,0.12-0.16,0.95-0.28l0.42-0.06l0.05-0.05
		c0.15-0.15,0.21-0.41,0.15-0.64c-0.04-0.18-0.16-0.32-0.32-0.37l-0.04-0.01l-0.04,0c-0.66,0.05-1.62,0.08-2.86,0.08
		c-1.24,0-2.23-0.03-3.1-0.08l-0.06,0l-0.05,0.03c-0.13,0.08-0.22,0.22-0.25,0.4c-0.04,0.22,0.02,0.44,0.15,0.59l0.05,0.06
		l0.82,0.15c0.71,0.12,1.07,0.18,1.97,1.93l3.17,6.18c0.76,1.46,0.84,1.76,0.84,3.24v1.37c0,2.92-0.07,3.06-1.42,3.21l-0.91,0.09
		l-0.05,0.05c-0.15,0.15-0.17,0.4-0.14,0.59c0.03,0.2,0.12,0.35,0.25,0.41l0.05,0.02l0.05,0c1.45-0.05,2.39-0.08,3.51-0.08
		c1.09,0,2.05,0.03,3.65,0.08l0.05,0l0.05-0.02c0.13-0.06,0.22-0.22,0.25-0.41c0.03-0.18,0.01-0.43-0.15-0.59l-0.05-0.05l-1.1-0.09
		c-1.24-0.09-1.42-0.3-1.42-3.21v-1.4c0-2.01,0.06-2.21,1.23-4.25l1.69-2.93c0.15-0.26,0.3-0.52,0.44-0.77
		c1.06-1.85,1.82-3.18,2.96-3.38l0.81-0.14L391.49,47.47L391.49,47.47z M381.08,80.34c-1.1-0.26-4.51-0.97-8.19-0.97
		c-9.74,0-16.12,3.03-20.43,7.54c-4,4.25-5.8,9.8-5.8,15.28c0,5.67,2.06,10.76,5.93,14.63c4.96,5.03,11.99,7.16,19.66,7.16
		c3.48,0,8.12-0.77,11.54-1.68c1.22-0.32,2.39-0.58,3.16-0.58c0.26-0.19,0.26-0.58,0.07-0.77c-1.16-0.45-1.55-2-1.55-4.58v-3.61
		c0-3.29,0.06-5.09,2.77-5.42l1.03-0.13c0.45-0.39,0.39-1.35-0.06-1.61c-2.13,0.13-4.32,0.19-6.83,0.19c-3.8,0-7.35-0.06-9.22-0.19
		c-0.45,0.19-0.52,1.35,0,1.61l2.84,0.32c4,0.45,4.19,0.84,4.19,6.25v2.58c0,2.06-0.32,3.22-0.64,3.67
		c-0.71,1.09-3.1,1.93-7.09,1.93c-12.96,0-19.34-9.74-19.34-22.11c0-9.67,5.48-18.57,17.99-18.57c6.58,0,11.41,2.19,13.21,9.15
		c0.39,0.39,1.55,0.32,1.74-0.19c-0.58-3.87-0.97-7.22-0.97-9.35C384.3,81.05,382.31,80.6,381.08,80.34L381.08,80.34z M371.09,46.1
		l0.02-0.07l-0.03-0.07c-0.1-0.2-0.38-0.22-0.49-0.22c-0.07,0-0.17,0.01-0.25,0.04l-0.07,0.03l-0.04,0.06
		c-0.34,0.6-0.49,0.65-1.92,0.65h-11.1c-1.2,0-1.74-0.06-1.85-0.66l-0.01-0.06l-0.05-0.05c-0.07-0.07-0.2-0.11-0.37-0.11
		c-0.06,0-0.28,0.01-0.4,0.08l-0.07,0.05l-0.02,0.09c-0.19,1.07-0.59,2.77-1.01,3.97l-0.03,0.08l0.04,0.08
		c0.16,0.32,0.71,0.48,1.01,0.26l0.04-0.03l0.02-0.05c0.27-0.62,0.53-1.21,1.16-1.78c0.59-0.54,1.93-0.62,3.17-0.62h1.48
		c0.6,0,0.6,0,0.6,0.65v12.01c0,2.91-0.17,3.04-1.48,3.15l-0.97,0.08l-0.09,0.03c-0.16,0.1-0.25,0.3-0.24,0.54
		c0.01,0.18,0.08,0.41,0.26,0.49l0.05,0.02l0.05,0c1.64-0.05,2.63-0.08,3.73-0.08c1.05,0,1.92,0.03,3.51,0.08l0.05,0l0.05-0.02
		c0.22-0.11,0.26-0.42,0.26-0.52c0.01-0.23-0.05-0.42-0.19-0.51l-0.96-0.11c-1.34-0.12-1.42-0.29-1.42-3.15V48.38
		c0-0.27,0-0.53,0.04-0.57c0.05-0.05,0.34-0.05,0.53-0.05H366c1.44,0,2.42,0.21,2.99,0.63c0.25,0.19,0.47,0.87,0.59,1.82l0.01,0.06
		l0.04,0.05c0.1,0.12,0.28,0.19,0.49,0.19c0.25,0,0.47-0.11,0.56-0.29l0.03-0.05l-0.01-0.06C370.62,49.34,370.8,47.18,371.09,46.1
		L371.09,46.1z M346.6,60.37V50.8c0-2.94,0.08-3.12,1.45-3.23l0.73-0.06l0.04-0.03c0.13-0.09,0.2-0.28,0.19-0.51
		c-0.01-0.09-0.04-0.41-0.26-0.52l-0.05-0.02l-0.05,0c-1.27,0.05-2.22,0.08-3.32,0.08c-1.15,0-2.08-0.03-3.38-0.08l-0.05,0
		l-0.05,0.02c-0.22,0.11-0.26,0.43-0.26,0.52c-0.01,0.23,0.05,0.42,0.19,0.51l0.04,0.03l0.72,0.06c1.37,0.12,1.45,0.3,1.45,3.23
		v9.56c0,2.89-0.07,3.04-1.46,3.21l-0.74,0.09l-0.05,0.05c-0.15,0.15-0.18,0.4-0.15,0.59c0.03,0.2,0.12,0.35,0.25,0.41l0.05,0.02
		l0.05,0c1.37-0.05,2.27-0.08,3.38-0.08c1.07,0,1.96,0.03,3.32,0.08l0.05,0l0.05-0.02c0.22-0.11,0.26-0.43,0.26-0.52
		c0.01-0.23-0.05-0.42-0.19-0.51l-0.76-0.11C346.67,63.41,346.6,63.26,346.6,60.37L346.6,60.37z M341.18,121.34
		c-2.77-0.32-3.61-1.29-5.48-6.83l-8.83-25.91c-0.97-2.84-2-5.8-2.84-8.64c-0.13-0.45-0.58-0.58-0.97-0.58
		c-0.71,0.84-1.8,2-3.35,2.45c0.19,1.03-0.19,2.25-1.1,4.58l-6.57,17.41c-2.71,7.22-4.51,11.41-5.67,14.38
		c-0.9,2.32-2.32,3.03-3.87,3.16l-2.13,0.19c-0.39,0.32-0.26,1.35,0.13,1.61c1.74-0.06,4.06-0.19,6.19-0.19
		c3.03,0.06,5.03,0.06,6.71,0.19c0.58-0.26,0.58-1.29,0.13-1.61l-2.13-0.19c-1.55-0.13-1.87-0.52-1.87-1.29
		c0-0.71,0.45-2.45,1.42-5.35l2.26-6.77c0.45-1.35,0.84-1.55,2.45-1.55h9.73c1.93,0,2.19,0.19,2.64,1.61l2.83,8.77
		c0.52,1.55,0.84,2.71,0.84,3.42c0,0.65-0.9,1.03-2.25,1.16l-1.87,0.19c-0.45,0.32-0.39,1.35,0.13,1.61
		c1.87-0.06,4.32-0.19,7.41-0.19c2.9,0,5.16,0.06,7.8,0.19c0.32-0.26,0.45-1.29,0-1.61L341.18,121.34L341.18,121.34z M324.55,103.8
		h-7.93c-1.81,0-1.87-0.06-1.35-1.55l4.06-11.22c0.71-1.93,1.35-3.48,1.55-3.8H321c0.39,0.77,0.97,2.52,1.48,4.06l3.48,10.51
		C326.54,103.55,326.41,103.8,324.55,103.8L324.55,103.8z M328.18,50.11c0-1.04,0.39-2.78,2.99-2.78c2.37,0,3.09,1.54,3.46,2.88
		l0.04,0.08c0.09,0.1,0.23,0.16,0.41,0.16c0.2,0,0.48-0.08,0.59-0.26l0.03-0.05v-0.06c0-1.1-0.23-2.63-0.49-3.35l-0.05-0.13h-0.14
		c-0.19,0-0.55-0.05-0.89-0.15c-0.64-0.17-1.65-0.36-2.55-0.36c-3.4,0-5.69,1.94-5.69,4.83c0,2.45,1.87,4.06,2.99,4.79l2.55,1.67
		c1.85,1.19,2.11,2.43,2.11,3.59c0,1.43-0.97,2.88-3.15,2.88c-2.72,0-3.91-2.1-4.42-3.85l-0.03-0.06c-0.08-0.12-0.23-0.19-0.41-0.19
		c-0.18,0-0.44,0.07-0.57,0.26l-0.04,0.06l0,0.07c0.05,1.21,0.4,3.2,0.75,3.85l0.03,0.05l0.05,0.03c0.53,0.31,2,1.02,4.29,1.02
		c3.54,0,5.93-2.08,5.93-5.18c0-2.15-1.13-3.89-3.45-5.33l-2.15-1.34C329.55,52.73,328.18,51.65,328.18,50.11L328.18,50.11z
		 M321.41,64.77c0.12-0.1,0.19-0.26,0.16-0.41c-0.02-0.15-0.11-0.26-0.24-0.32l-0.06-0.01c-0.64-0.05-1.29-0.31-1.74-0.7
		c-1.85-1.55-3.32-3.82-5.36-7.1c-0.14-0.23-0.16-0.33-0.16-0.37c0.89-0.37,3.41-1.69,3.41-4.65c0-2.25-1.27-3.39-2.34-3.94
		c-1.35-0.73-3.07-0.83-4.58-0.83c-2.46,0-4.37,0.07-6.01,0.21l-0.07,0.02c-0.16,0.08-0.26,0.25-0.28,0.46
		c-0.02,0.23,0.07,0.45,0.22,0.56l0.04,0.03l0.91,0.11c0.88,0.11,1,0.3,1,2.94v9.65c0,2.84-0.07,2.99-1.43,3.15l-0.75,0.09
		l-0.05,0.06c-0.15,0.18-0.17,0.43-0.13,0.61c0.04,0.18,0.12,0.31,0.25,0.38l0.05,0.02l0.05,0c1.19-0.05,2.17-0.08,3.35-0.08
		c1.11,0,2.04,0.03,3.19,0.08l0.05,0l0.05-0.02c0.2-0.1,0.25-0.36,0.26-0.46c0.03-0.24-0.04-0.44-0.17-0.55L311,63.66l-0.62-0.09
		c-1.38-0.19-1.43-0.31-1.43-3.15v-3.39c0-0.38,0-0.38,1.06-0.38c1.03,0,1.38,0.25,1.74,0.77c0.41,0.59,0.88,1.34,1.34,2.07
		c0.48,0.76,0.93,1.48,1.29,1.98c1.84,2.63,3.24,3.47,5.73,3.47c0.52,0,0.97-0.05,1.25-0.14L321.41,64.77L321.41,64.77z
		 M313.31,54.78c-0.77,0.58-1.81,0.66-2.64,0.66c-1.21,0-1.59-0.05-1.7-0.08c-0.03-0.11-0.03-0.43-0.03-0.74v-6.29
		c0-0.6,0-0.65,1.54-0.65c3.02,0,4.09,2.12,4.09,3.93C314.58,53.1,314.17,54.11,313.31,54.78L313.31,54.78z M299.43,60.84l0.01-0.06
		l-0.03-0.06c-0.12-0.26-0.4-0.37-0.63-0.37c-0.13,0-0.25,0.04-0.35,0.1l-0.06,0.08c-0.77,1.54-1.46,2.32-1.82,2.51
		c-0.58,0.29-1.39,0.38-3.35,0.38c-2.24,0-2.81-0.27-3.1-0.55c-0.38-0.4-0.46-1.28-0.46-2.65v-3.79c0-0.52,0-0.52,0.68-0.52h1.56
		c0.94,0,1.64,0.02,2.02,0.13c0.37,0.09,0.56,0.34,0.68,0.87l0.24,1.05l0.04,0.09c0.1,0.12,0.29,0.19,0.5,0.19
		c0.25,0,0.45-0.09,0.53-0.25l0.03-0.05v-0.06c0-0.26-0.02-0.61-0.04-1c-0.03-0.49-0.06-1.04-0.06-1.58c0-0.56,0.03-1.14,0.06-1.64
		c0.02-0.41,0.04-0.78,0.04-1.07v-0.05l-0.03-0.05c-0.09-0.16-0.29-0.25-0.54-0.25c-0.21,0-0.4,0.07-0.5,0.19l-0.26,1.19
		c-0.12,0.61-0.27,0.71-0.51,0.78c-0.29,0.1-1.1,0.15-2.22,0.15h-1.56c-0.68,0-0.68,0-0.68-0.55v-5.37c0-0.87,0-0.87,0.6-0.87h1.93
		c1.14,0,2.01,0.03,2.56,0.16c1.22,0.31,1.47,1.08,1.84,2.25l0.05,0.16l0.04,0.07c0.09,0.11,0.25,0.17,0.44,0.17
		c0.18,0,0.44-0.06,0.56-0.24l0.04-0.06l-0.04-0.4c-0.14-1.56-0.27-2.89-0.41-3.3l-0.06-0.18l-0.18,0.04
		c-0.3,0.07-1.96,0.07-3.58,0.07h-5.05c-1.04,0-1.92-0.02-3.16-0.08l-0.05,0l-0.05,0.02c-0.22,0.11-0.26,0.42-0.27,0.52
		c-0.02,0.24,0.05,0.42,0.19,0.51l0.52,0.09c1.38,0.16,1.46,0.34,1.46,3.18v9.67c0,2.91-0.17,3.04-1.48,3.15l-0.96,0.09l-0.05,0.05
		c-0.15,0.15-0.18,0.4-0.15,0.58c0.03,0.2,0.12,0.35,0.25,0.42l0.05,0.02l0.05,0c1.55-0.05,2.49-0.08,3.65-0.08h2.42
		c2.34,0,4.7,0.03,7.2,0.08l0.13,0l0.06-0.12C298.57,63.86,299.24,61.78,299.43,60.84L299.43,60.84z M281.01,47.46
		c0.15-0.15,0.17-0.4,0.15-0.58c-0.03-0.2-0.11-0.34-0.24-0.42l-0.05-0.03l-0.06,0c-0.9,0.05-1.72,0.08-2.59,0.08
		c-1.06,0-2.07-0.03-2.78-0.08l-0.06,0l-0.05,0.03c-0.15,0.09-0.25,0.26-0.27,0.48c-0.02,0.21,0.05,0.41,0.18,0.53l0.05,0.04
		l0.54,0.06c0.94,0.11,1.03,0.3,1.03,0.3c0,0.18-0.03,0.44-0.23,0.97c-0.46,1.17-1.74,4.25-2.5,6.01c-0.2,0.46-0.45,1.05-0.73,1.71
		c-0.51,1.21-1.13,2.68-1.66,3.83c-1.27-2.92-2.44-5.85-3.63-8.84c-0.79-1.93-1.24-3.33-1.32-3.68c0.04-0.08,0.27-0.2,1.08-0.31
		l0.46-0.06l0.05-0.04c0.14-0.12,0.21-0.32,0.19-0.53c-0.02-0.21-0.12-0.39-0.27-0.48l-0.05-0.03l-0.06,0
		c-1.19,0.06-2.13,0.08-3.24,0.08c-1.12,0-1.98-0.02-2.78-0.08l-0.07,0l-0.06,0.04c-0.16,0.1-0.26,0.28-0.27,0.48
		c-0.02,0.21,0.06,0.4,0.19,0.52l0.05,0.04l0.55,0.06c1.04,0.12,1.4,0.6,2.01,2.08l4.73,11.66c0.56,1.4,0.98,2.59,1.23,3.55
		l0.03,0.1l0.1,0.04c0.16,0.06,0.32,0.1,0.48,0.1c0.15,0,0.3-0.04,0.41-0.11l0.06-0.04l0.02-0.07c0.46-1.44,1.75-4.61,2.79-6.99
		l1.45-3.3c1.25-2.82,2.28-4.95,3-6.15c0.34-0.55,0.7-0.8,1.23-0.84l0.88-0.06L281.01,47.46L281.01,47.46z M263.47,84.85
		c-4.9,3.8-8.12,9.93-8.12,17.08c0,8.32,4,14.18,9.15,17.73c4.71,3.16,10.25,4.32,16.05,4.32c4.13,0,8.77-0.97,10.19-1.48
		c0.71-0.26,1.48-0.51,2.26-0.64c0.97-1.22,2.64-5.48,3.09-8.83c-0.26-0.45-1.23-0.58-1.67-0.26c-1.48,3.8-5.16,9.22-13.47,9.22
		c-10.57,0-19.15-7.48-19.15-21.02c0-13.34,8.38-19.6,18.24-19.6c9.35,0,12.25,5.03,13.22,9.41c0.45,0.39,1.42,0.32,1.74-0.13
		c-0.51-3.93-0.84-7.99-0.9-9.48c-0.58,0.07-1.03-0.06-1.8-0.26c-3.03-0.84-7.93-1.55-11.41-1.55
		C274.17,79.37,268.17,81.18,263.47,84.85L263.47,84.85z M255.22,60.37V50.8c0-2.91,0.09-3.12,1.45-3.23l0.72-0.06l0.04-0.03
		c0.13-0.09,0.2-0.28,0.19-0.51c-0.01-0.09-0.04-0.41-0.26-0.52l-0.05-0.02l-0.05,0c-1.27,0.05-2.22,0.08-3.32,0.08
		c-1.15,0-2.08-0.03-3.38-0.08l-0.05,0l-0.05,0.02c-0.22,0.11-0.26,0.42-0.27,0.52c-0.01,0.23,0.05,0.42,0.19,0.51l0.04,0.03
		l0.72,0.06c1.36,0.12,1.45,0.33,1.45,3.23v9.56c0,2.89-0.07,3.04-1.46,3.21l-0.74,0.09l-0.05,0.05c-0.15,0.15-0.18,0.4-0.15,0.59
		c0.03,0.2,0.12,0.35,0.25,0.41l0.05,0.02l0.05,0c1.36-0.05,2.26-0.08,3.38-0.08c1.06,0,1.99,0.03,3.32,0.08l0.05,0l0.05-0.02
		c0.22-0.11,0.26-0.43,0.27-0.52c0.01-0.23-0.05-0.42-0.19-0.51l-0.76-0.11C255.29,63.41,255.22,63.26,255.22,60.37L255.22,60.37z
		 M241.74,113.15V90.2c0-6.83,0.13-7.93,3.93-8.25l1.61-0.13c0.39-0.26,0.26-1.42-0.13-1.61c-3.22,0.13-5.41,0.19-7.99,0.19
		c-2.71,0-4.9-0.07-8.12-0.19c-0.39,0.19-0.52,1.35-0.13,1.61l1.61,0.13c3.8,0.32,3.93,1.42,3.93,8.25v22.95
		c0,6.83-0.13,7.74-3.93,8.19l-1.61,0.19c-0.39,0.39-0.26,1.42,0.13,1.61c3.22-0.13,5.42-0.19,8.12-0.19c2.58,0,4.77,0.06,7.99,0.19
		c0.39-0.19,0.52-1.35,0.13-1.61l-1.61-0.19C241.87,120.89,241.74,119.99,241.74,113.15L241.74,113.15z M245.07,47.46
		c0.13-0.13,0.19-0.34,0.17-0.55c-0.02-0.19-0.12-0.35-0.26-0.44l-0.06-0.04l-0.07,0c-0.88,0.05-1.58,0.08-2.75,0.08
		c-0.95,0-1.83-0.02-3.16-0.08l-0.04,0l-0.04,0.01c-0.16,0.06-0.27,0.2-0.3,0.4c-0.04,0.24,0.03,0.48,0.18,0.62l0.05,0.04l0.52,0.06
		c0.92,0.12,1.39,0.25,1.52,0.44c0.32,0.51,0.51,2.49,0.51,5.45v5.75c0,0.26,0,0.56-0.02,0.77c-0.93-0.96-1.91-2.05-3.12-3.41
		l-3.74-4.19c-2.66-2.98-4.18-4.94-4.52-5.81l-0.06-0.15l-0.16,0.02c-0.32,0.05-0.76,0.08-1.21,0.08c-0.47,0-1.9,0-3.02-0.08
		l-0.06,0l-0.05,0.03c-0.14,0.07-0.24,0.22-0.27,0.4c-0.04,0.22,0.03,0.46,0.16,0.6l0.05,0.05l0.53,0.06
		c0.72,0.09,1.25,0.29,1.54,0.58c0.5,0.55,0.54,1.04,0.54,1.79v8.01c0,1.3,0,4.34-0.33,5.21c-0.06,0.14-0.29,0.32-1.02,0.42
		l-0.8,0.09l-0.05,0.05c-0.12,0.12-0.18,0.31-0.16,0.51c0.02,0.2,0.11,0.37,0.24,0.47l0.06,0.04l0.07,0
		c0.93-0.05,1.65-0.08,2.78-0.08c0.91,0,1.82,0.02,3.13,0.08l0.07,0l0.06-0.04c0.13-0.09,0.21-0.23,0.24-0.4
		c0.03-0.2-0.02-0.4-0.14-0.56l-0.05-0.07l-0.93-0.09c-0.64-0.05-1.09-0.2-1.21-0.41c-0.29-0.51-0.46-2.5-0.46-5.46v-5.86
		c0-0.48,0.01-0.99,0.06-1.36c0.43,0.48,1.14,1.32,1.78,2.07c0.44,0.52,0.84,1,1.11,1.3l6.23,7.09c2.07,2.36,3.06,3.53,3.42,4.04
		l0.06,0.09h0.11c0.35,0,0.62-0.16,0.71-0.44l0.01-0.04l-0.01-0.04c-0.04-0.31-0.08-1.38-0.08-4.68l0-6.78
		c0-1.38-0.01-4.24,0.38-5.08c0.03-0.07,0.36-0.3,1.35-0.45l0.44-0.06L245.07,47.46L245.07,47.46z M220.99,47.42
		c0.12-0.14,0.18-0.37,0.14-0.56c-0.03-0.17-0.11-0.3-0.25-0.39l-0.06-0.03l-0.07,0c-0.93,0.05-1.66,0.08-2.81,0.08
		c-1.03,0-2.03-0.03-3.05-0.08l-0.07,0l-0.06,0.04c-0.12,0.08-0.21,0.24-0.24,0.42c-0.03,0.2,0.02,0.4,0.14,0.53l0.06,0.07
		l0.76,0.06c0.62,0.05,1.04,0.22,1.18,0.46c0.31,0.55,0.49,2.49,0.49,5.46v3.09c0,3.17-0.9,6.94-5.17,6.94
		c-3.58,0-5.25-2.21-5.25-6.97v-5.8c0-2.86,0.09-3.06,1.42-3.18l0.7-0.06l0.04-0.03c0.13-0.09,0.2-0.27,0.19-0.5
		c-0.01-0.19-0.09-0.42-0.26-0.51l-0.05-0.02l-0.05,0c-1.27,0.05-2.18,0.08-3.29,0.08c-1.1,0-2.05-0.03-3.32-0.08l-0.05,0
		l-0.05,0.02c-0.18,0.09-0.25,0.32-0.27,0.5c-0.02,0.23,0.05,0.41,0.19,0.5l0.05,0.03l0.72,0.06c1.33,0.12,1.42,0.32,1.42,3.18v6.34
		c0,3.25,0.67,5.25,2.17,6.5c1.18,1.01,2.92,1.53,5.16,1.53c2.12,0,4.14-0.78,5.28-2.03c1.3-1.4,1.94-3.54,1.94-6.56v-3.04
		c0-1.36,0-4.55,0.36-5.39c0.12-0.27,0.58-0.48,1.17-0.53l0.73-0.06L220.99,47.42L220.99,47.42z M190.11,81.82
		c0.39-0.26,0.26-1.42-0.13-1.61c-2.77,0.13-4.96,0.19-7.48,0.19c-2.77,0-4.96-0.13-8.12-0.19c-0.39,0.19-0.52,1.35-0.13,1.61
		l1.68,0.13c3.35,0.26,3.8,1.35,3.8,8.12v23.21c0,6.77-0.13,7.41-3.74,8.06l-1.09,0.19c-0.39,0.39-0.26,1.42,0.13,1.61
		c2.51-0.06,4.71-0.19,7.48-0.19c2.51,0,4.71,0.06,8.19,0.19c0.39-0.19,0.52-1.35,0.13-1.61l-1.87-0.19
		c-3.61-0.39-3.93-1.29-3.93-8.06v-9.09c0-1.93,0.13-2.06,3.22-2.06h18.44c3.09,0,3.22,0.13,3.22,2.06v9.09c0,6.77,0,7.41-3.93,8.06
		l-1.22,0.19c-0.39,0.39-0.26,1.42,0.13,1.61c2.84-0.13,5.16-0.19,7.8-0.19c2.51,0,4.71,0.06,7.8,0.19
		c0.39-0.19,0.52-1.35,0.13-1.61l-1.55-0.19c-3.74-0.45-3.87-1.29-3.87-8.06V90.07c0-6.77,0.13-7.74,3.87-8.12l1.35-0.13
		c0.39-0.26,0.26-1.42-0.13-1.61c-2.9,0.13-5.09,0.19-7.61,0.19c-2.64,0-4.83-0.07-7.8-0.19c-0.39,0.19-0.52,1.35-0.13,1.61
		l1.22,0.13c3.8,0.39,3.93,1.35,3.93,8.12v7.41c0,2-0.13,2.06-3.22,2.06h-18.44c-3.09,0-3.22-0.06-3.22-2.06v-7.41
		c0-6.77,0.13-7.74,3.87-8.12L190.11,81.82L190.11,81.82z M187.51,60.84l0.01-0.06l-0.03-0.06c-0.12-0.26-0.4-0.37-0.63-0.37
		c-0.13,0-0.25,0.04-0.35,0.1l-0.07,0.08c-0.77,1.54-1.46,2.32-1.81,2.51c-0.58,0.29-1.39,0.38-3.35,0.38
		c-2.24,0-2.81-0.27-3.1-0.55c-0.38-0.41-0.46-1.28-0.46-2.65v-3.79c0-0.52,0-0.52,0.68-0.52h1.56c0.94,0,1.64,0.02,2.02,0.13
		c0.37,0.09,0.57,0.34,0.68,0.87l0.24,1.05l0.04,0.09c0.1,0.12,0.29,0.19,0.5,0.19c0.25,0,0.44-0.09,0.53-0.25l0.03-0.05v-0.06
		c0-0.26-0.02-0.61-0.04-1c-0.03-0.49-0.06-1.04-0.06-1.58c0-0.56,0.03-1.14,0.06-1.64c0.02-0.41,0.05-0.78,0.05-1.07v-0.05
		l-0.03-0.05c-0.09-0.16-0.29-0.25-0.54-0.25c-0.21,0-0.4,0.07-0.5,0.19l-0.26,1.19c-0.12,0.61-0.27,0.71-0.51,0.78
		c-0.29,0.1-1.09,0.15-2.22,0.15h-1.56c-0.68,0-0.68,0-0.68-0.55v-5.37c0-0.87,0-0.87,0.6-0.87h1.93c1.14,0,2.01,0.03,2.56,0.16
		c1.23,0.31,1.47,1.08,1.84,2.25l0.05,0.16l0.04,0.07c0.09,0.11,0.25,0.17,0.44,0.17c0.19,0,0.44-0.06,0.56-0.24l0.04-0.06
		l-0.04-0.4c-0.14-1.56-0.27-2.89-0.41-3.3l-0.06-0.18l-0.18,0.04c-0.3,0.07-1.96,0.07-3.58,0.07h-5.05c-1.03,0-1.92-0.02-3.16-0.08
		l-0.05,0l-0.05,0.02c-0.22,0.11-0.26,0.42-0.26,0.52c-0.02,0.24,0.05,0.42,0.19,0.51l0.52,0.09c1.38,0.16,1.46,0.34,1.46,3.18v9.67
		c0,2.91-0.17,3.04-1.48,3.15l-0.96,0.09l-0.05,0.05c-0.15,0.15-0.18,0.4-0.15,0.59c0.03,0.2,0.12,0.35,0.25,0.41l0.05,0.02l0.05,0
		c1.55-0.05,2.49-0.08,3.65-0.08h2.42c2.34,0,4.7,0.03,7.19,0.08l0.13,0l0.06-0.12C186.64,63.87,187.32,61.78,187.51,60.84
		L187.51,60.84z M165.06,60.42v-9.67c0-2.86,0.08-3.04,1.42-3.18l0.56-0.05l0.09-0.03c0.13-0.09,0.2-0.27,0.19-0.51
		c-0.01-0.09-0.04-0.41-0.26-0.52l-0.05-0.02l-0.05,0c-1.3,0.06-2.19,0.08-3.16,0.08c-1.16,0-2.1-0.03-3.24-0.08l-0.05,0l-0.05,0.02
		c-0.22,0.11-0.26,0.42-0.26,0.52c-0.02,0.23,0.05,0.42,0.19,0.51l0.6,0.09c1.37,0.14,1.45,0.32,1.45,3.18v3.09
		c0,0.65,0,0.65-1.14,0.65h-7.68c-1.14,0-1.14,0-1.14-0.65v-3.09c0-2.86,0.08-3.04,1.43-3.18l0.51-0.05l0.09-0.03
		c0.13-0.09,0.2-0.28,0.19-0.51c-0.01-0.09-0.04-0.41-0.27-0.52l-0.05-0.02l-0.05,0c-1.22,0.06-2.12,0.08-3.11,0.08
		c-0.7,0-1.31-0.02-1.98-0.04c-0.43-0.01-0.88-0.03-1.4-0.04l-0.05,0l-0.04,0.02c-0.22,0.11-0.26,0.42-0.27,0.52
		c-0.02,0.24,0.05,0.42,0.19,0.51l0.05,0.03l0.75,0.06c1.18,0.09,1.39,0.33,1.39,3.18v9.67c0,2.8-0.05,2.91-1.39,3.15l-0.52,0.09
		l-0.05,0.05c-0.15,0.15-0.18,0.4-0.15,0.59c0.03,0.2,0.12,0.35,0.25,0.41l0.05,0.02l0.05,0c0.37-0.01,0.72-0.02,1.07-0.03
		c0.64-0.02,1.29-0.05,2.04-0.05c1.01,0,1.87,0.02,3.41,0.08l0.05,0l0.05-0.02c0.18-0.09,0.25-0.33,0.26-0.52
		c0.01-0.23-0.06-0.42-0.19-0.5l-0.87-0.11c-1.29-0.14-1.45-0.27-1.45-3.15v-3.79c0-0.65,0-0.65,1.14-0.65h7.68
		c1.14,0,1.14,0,1.14,0.65v3.79c0,2.86-0.03,2.92-1.46,3.15l-0.58,0.09l-0.05,0.05c-0.15,0.15-0.18,0.4-0.15,0.59
		c0.03,0.2,0.13,0.35,0.25,0.41l0.05,0.02l0.05,0c1.29-0.06,2.22-0.08,3.24-0.08c1.06,0,1.99,0.03,3.24,0.08l0.05,0l0.05-0.02
		c0.22-0.11,0.26-0.42,0.27-0.52c0.02-0.23-0.05-0.42-0.19-0.51l-0.73-0.11C165.12,63.41,165.06,63.26,165.06,60.42L165.06,60.42z
		 M142.97,46.1l0.02-0.08l-0.04-0.07c-0.1-0.2-0.4-0.22-0.49-0.22c-0.07,0-0.17,0.01-0.25,0.04l-0.07,0.03l-0.04,0.06
		c-0.35,0.6-0.49,0.65-1.92,0.65h-11.1c-1.2,0-1.74-0.06-1.85-0.66l-0.01-0.06l-0.05-0.05c-0.07-0.07-0.2-0.11-0.37-0.11
		c-0.06,0-0.28,0.01-0.4,0.09l-0.07,0.05l-0.02,0.09c-0.19,1.07-0.59,2.77-1.01,3.97l-0.03,0.08l0.04,0.08
		c0.16,0.32,0.71,0.48,1.01,0.26l0.04-0.03l0.02-0.05c0.27-0.62,0.53-1.21,1.16-1.78c0.59-0.54,1.93-0.62,3.16-0.62h1.48
		c0.6,0,0.6,0,0.6,0.65v12.01c0,2.91-0.17,3.04-1.48,3.15l-0.97,0.08l-0.09,0.03c-0.16,0.1-0.25,0.3-0.24,0.54
		c0.01,0.18,0.08,0.41,0.25,0.49l0.05,0.02l0.05,0c1.64-0.05,2.64-0.08,3.73-0.08c1.05,0,1.92,0.03,3.51,0.08l0.05,0l0.05-0.02
		c0.18-0.09,0.25-0.33,0.26-0.52c0.01-0.23-0.05-0.42-0.19-0.5l-0.96-0.11c-1.34-0.12-1.42-0.29-1.42-3.15V48.38
		c0-0.27,0-0.53,0.04-0.58c0.05-0.05,0.34-0.05,0.53-0.05h1.91c1.44,0,2.42,0.21,2.99,0.63c0.25,0.19,0.47,0.87,0.59,1.82l0.01,0.06
		l0.04,0.05c0.1,0.12,0.28,0.19,0.49,0.19c0.25,0,0.47-0.11,0.55-0.29l0.03-0.05l-0.01-0.06C142.5,49.34,142.68,47.17,142.97,46.1
		L142.97,46.1z M124.68,101.94c0,8.32,4,14.18,9.15,17.73c4.71,3.16,10.25,4.32,16.05,4.32c4.13,0,8.77-0.97,10.18-1.48
		c0.71-0.26,1.48-0.51,2.26-0.64c0.97-1.22,2.64-5.48,3.09-8.83c-0.26-0.45-1.22-0.58-1.68-0.26c-1.48,3.8-5.16,9.22-13.47,9.22
		c-10.57,0-19.15-7.48-19.15-21.02c0-13.34,8.38-19.6,18.24-19.6c9.35,0,12.25,5.03,13.22,9.41c0.45,0.39,1.42,0.32,1.74-0.13
		c-0.52-3.93-0.84-7.99-0.9-9.48c-0.58,0.07-1.03-0.06-1.8-0.26c-3.03-0.84-7.93-1.55-11.41-1.55c-6.7,0-12.7,1.8-17.41,5.48
		C127.9,88.66,124.68,94.78,124.68,101.94L124.68,101.94z M107.91,91.06l0-44.9c-36.07-3.48-63.3,0-63.3,0s0,44.9,0,44.91
		c2.87,30.44,31.38,34.01,31.65,33.97C81.36,124.11,105.26,119.31,107.91,91.06L107.91,91.06z M54.77,102.27
		c0.58,0.39,1.26,0.56,1.88,0.83c0.77,2.01,0.02,4-0.41,3.17C55.48,104.83,55.18,103.63,54.77,102.27L54.77,102.27z M54.81,80.2
		l-0.05-0.05c-0.06,0-4.01,2.49-6.57,1.3c1.91-1.06,8.54-5.27,10.35-6.46c0.85,0.18,1.2-0.12,1.47-0.31
		c-0.69,0.04-2.99,0.4-1.83-1.65c0.45,1.84,3.66,0.15,4.82-0.12c3.22-0.74,3.2,2.7,2.92,4.12c-0.1,0.53,0.99,0.91,1.52,0.83
		c-0.92,2.27-2.5,0.13-2.69,1c-0.08,0.35-1.13,0.63-1.13,1.5c0.01,1.19,0.47,0.54,0.52,1.47c0.05,0.9-0.38,0.2-0.28,1.17
		c0.15,1.54,2.7-0.2,3.75,0.21c0.53,0.21,0.88,0.68,1.39,0.59c0.15-0.12,0.08-0.71,0.06-0.91c-0.05-0.49-0.96-0.55-1.38-1.21
		c-0.37-0.58,0.42-2.33,0.84-2.85c0.61,2.89,3.32,1.98,3.72,5.02c0.26,0.86-0.93,1.81,0.03,3.21c-0.71,0.69-1.57,3.98-0.08,5.53
		c-0.25,0.7-0.59,2.31,0.74,3.26c-0.45,0.95-0.34,2.12,0.03,3.31c-0.83,0-0.66-4.65-5.63-4.8c-0.11-0.03-0.14,0.53,0,0.78
		c0.6,1.05,1.39,0.99,1.22,3.45c-0.06,0.84-0.55-0.15-0.82-0.38c-0.6-0.53-1.07-0.6-1.33-2.33c-2.02,1.58-1.82,3.5-1.69,4.47
		c0,0-0.45-1.21-0.96-2.46c-0.03-0.07,2.05-2.56,2.38-3.16c4.19-7.54-2.71,2.44-2.72,2.41c-0.37-0.86-0.7-1.6-0.91-1.84
		c0.05-0.1,1.2-1.39,1.72-2.47c3.24-6.75-1.93,2.25-2.11,2.08c-0.39-0.35-0.71-0.79-0.96-0.63c-0.06,1.04-0.31,0.9-0.23,1.95
		c-0.54,0.72-1.7,1.85-2.51,2.42c0,0-0.2-1.87-0.15-1.94c0.41-0.5,2-2.21,2.33-2.72c5.31-8.34-2.49,2.01-2.5,1.92
		c-0.06-0.33-0.48-0.88-0.94-1.34c0,0,1.72-2.35,2.15-3.22c3.23-6.65-2.6,2.94-2.66,2.91c-0.14-0.07-0.15-0.07-0.32-0.13
		c-0.16-0.05,0.18-1.91,0.4-3.03c0.44-2.21-0.74-0.43-1.06,3.08c-0.3,0.05-1.03,0.12-1.3,0.37c0.18,0.94,0.4,0.22,0.79,1.12
		c0.47,1.08-0.65,2.84,0.32,4.14c0.38,0.5,0.4,0.42,0.33,0.74c-0.6-0.04-0.97-0.05-1.35,0.46c-0.74-3.36-0.72-4.98-0.54-8.39
		c0.08-1.55,0.59-3.9,0.35-3.95c-0.22-0.04-3.74,9.02-4.59,10.8c-1.48-0.5,0.92-8.35,3.98-12.12c0.29-1.2-1.6,1.22-2.73,2.18
		c-1.04,0.88-2.35,2.04-3.78,1.64c1.84-1.94,6.04-5.57,6.51-6.48c0.39-0.78-2.87,2.42-6.32,1.23C49.59,84.71,54.8,82.05,54.81,80.2
		L54.81,80.2z M61.02,97.24c0.01,0.83-0.05,1.44,0.2,2.28c0.39,1.27,0.19,0.88-0.34,0.44c-0.42-0.47-0.82-0.86-1.02-1.41
		C59.8,98.17,60.12,98.14,61.02,97.24L61.02,97.24z M69.35,76.82c-0.5-0.86,0.6-1.68,0.6-1.68c-0.03,2.41,3.05,0.76,4.66,1.52
		c0.39,0.18,0.66,0.52,0.82,0.88C73.7,76.34,70.5,78.78,69.35,76.82L69.35,76.82z M51.22,57.55c-2.75,0-2.69-4.13,0-4.13
		C53.92,53.42,53.92,57.55,51.22,57.55L51.22,57.55z M51.22,65.79c-2.81,0-2.81-4.12,0-4.12C53.92,61.67,53.94,65.79,51.22,65.79
		L51.22,65.79z M56.44,56.89h-2.4v-2.36h2.4V56.89L56.44,56.89z M56.44,65.11h-2.4v-2.36h2.4V65.11L56.44,65.11z M75.82,69.17
		c0,0-2.51-1.36-5.46-1.56c-2.85-0.19-8.61,2.09-13.03,1.79V49.98c0,0,5.04,0.67,7.11-0.13c7.04-2.72,11.37,0.32,11.37,0.32V69.17
		L75.82,69.17z M80.68,72.33c0.12,0.73-0.56,0.92-0.56,0.92c1.06,0.25,1.56-0.38,1.77-0.78c0.41,1.69-1.3,1.78-1.83,1.88
		c0,0,0.86,0.25,0.91,0.81c0.11,1.43,1.03,1.31,1.23,1.19c-0.03,0.17-0.32,1.03-1.35,0.26c-0.17,0.17,0.28,0.44,0.37,1.15
		c0.12,0.9,0.09,1.73,1.12,2.27c-0.63,0.5-1.38-0.81-1.45-0.65c-0.07,0.18,0.88,0.66-0.17,3.14c-0.48-0.28-0.21-0.22-0.77-0.88
		c-0.43-0.36-0.59-0.44-0.24,0.15c0.62,0.77,0.77,2.55,0.55,3.02c-0.51-0.22-0.38-0.63-0.98-1.19c-0.06,0.24,0.19,1.41,0.81,1.97
		c1.08,0.97,1.46,2.15,1.48,2.38c0.09,0.88-0.19,2.05-0.3,3.18c-0.52-0.07-0.96-1.54-1.08-1.46c-0.15,0.1,0.06,1.44,1.04,2.35
		c0.47,1.38,0.28,2.12,0.16,2.17c-0.17,0.07-0.69-1.41-0.98-1.15c1.39,3.53,0.42,4.75,0.05,5.84c-0.29-1.11-0.43-1.95-0.79-3.21
		c-0.76,0.59-0.94,1.47-1.86,2.28c0-1.44-0.83-4.91-1.49-5.72c-0.03-0.04-1.19,3.11-1.72,4.51c-0.69,1.82-0.79,4.09,0,5.86
		c-1.71-2.44-1.9-6.97-0.42-7.58c0.13-0.32-0.09-1.39-0.42-1.26c-0.09,0.52-0.03,0.97-0.46,1.48c-1.13-0.33-0.62-1.72-0.52-2.17
		c1.47-1.76,0.55-2.17,0.48-2.12c-0.16,0.4-0.3,0.9-0.75,1.08c-0.94-1.62-0.34-4.17,1.45-6.07c0.08-0.71-0.8,0.53-1.37,0.49
		c-0.15-1.37,0.35-3.74,2.88-3.83c-0.48-0.14-0.74-0.23-0.86-0.63c0.76-0.11,3.16-0.3,2.77-2.19c-0.23,0.23-0.3,0.57-0.92,0.95
		c-0.42,0.26-0.88,0.28-1.12-0.09c1.11-0.37,0.75-1.72-0.71-1.32c-0.44,0.12-1.1-0.34-1.13-0.86c0.32,0.32,0.98,0.08,1.36-0.16
		c1.63-1.06,2.63,0.48,2.85,0.81c0.07,0,0.73-1.54-1.59-1.95c-0.19-0.54-0.72-1.5-2.3-1.38c-0.52-1.83-2.09-0.93-2.04-0.1
		c-1.67-1.23,0.03-2.78,0.7-3.02c0.47,0.04,0.36,1.52,1.18,1.27c0.2-0.06-0.64-1.02-0.32-1.45c0.75-0.43,0.74,0.55,1.11,0.19
		c0.18-0.64,0.92-1,1.53-1.07C77.72,71.38,79.05,73.25,80.68,72.33L80.68,72.33z M96.03,69.47c-3.7,0.25-11.39-1.86-13.34-1.86
		c-4.03,0-5.98,1.57-5.98,1.57s0.01-18.3,0-18.96c0,0,5.3-2.48,9.15-1.06c4.72,1.74,10.17,0.97,10.17,0.97V69.47L96.03,69.47z
		 M100.91,62c2.04-0.3,2.35,2.11,2.35,2.11h0c-0.5-0.4-1.51-0.58-2.2-0.14c-2.28,1.47-4.34,1.48-4.34,1.48v-3.68
		C96.72,61.77,97.15,62.55,100.91,62L100.91,62z M103.32,56.96c-0.02-0.11-0.04-0.28-0.07-0.51c-0.05-0.37-1.11-0.58-1.85-0.25
		c-1.04,0.46-3.66,1.95-4.61,1.67v-3.68c2.35,1.02,3.27,0.1,4.03,0.1c2.32,0,2.44,2.17,2.44,2.17
		C103.29,56.68,103.31,56.85,103.32,56.96L103.32,56.96z M100.69,95.1c-0.69,0.18-2.5,0.9-2.94,1.62c0.23-3.92-1.03-7.77-1.44-8.7
		c-0.79-1.81,0.35,4.22,0.43,5.61c0,0.06-6.51-8.37-2.58-1.88c1.02,1.68,2.61,2.78,2.61,2.81c0.03,1.17-0.05,2.03-0.27,2.66
		c-0.4,0.32-8.86-11.26-4.19-3.24c0.58,0.99,3.97,4,3.95,4.07c-0.22,0.46-0.6,1.12-1.12,1.61c-0.09-0.09-1.95-1.46-1.97-1.55
		c-0.14-0.9-0.15-1.74-1.25-1.11c0,0-4.17-4.85-2.24-1.45c0.84,1.49,1.4,1.65,1.62,1.92c0,0-0.65,0.88-0.85,1.81
		c-0.08,0.37-3.62-3.92-2.23-1.22c0.44,0.86,2.06,1.81,2.04,1.87c-0.17,0.56-0.33,1.11-0.51,1.46c-0.22,0.45-3.32,2.92-3.32,2.92
		c0,0,0.61-1.96,1.92-2.92c0.75-0.55,0.75-0.43,1.25-0.74c-0.01-0.29-0.29-0.76-0.65-0.89c-0.45-0.16-1.92,0.11-1.92,0.11
		c0.14-0.73-0.51-2.32-0.5-4.06c-0.55,0.05-1.52,0.91-1.76,1.39c-0.17,2.88-0.8,2.02-1.38,4.1c-0.64-0.87,0.04-2.12-0.58-2.93
		c-0.86-1.12-0.99-1.88-1.12-3.25c0.2-0.11,1.08-1.08,0.28-3.12c-0.13-3.2,1.3-4.42-1.26-6.65c0.21-0.07,0.37-1.67,0.37-1.67
		c1.88,1,1.51-1.16,2.24-1.59c1.16-0.68,0.95-1.38,0.43-2.25c3.33,0.95-0.15,3.22,1.36,3.27c1.09,0.03,1.82-0.24,2.3-0.98
		c0.51-0.78-0.09-1.25,1.32-2.51c0.14-0.12,0.52-0.97-0.6-1.2c-0.25-0.05,0-1.01,0-1.01c-0.9,0.76-1.18,1.83-2.62,1.15
		c-0.74-0.35-1.22-0.01-1.52,0.14c0,0-0.15-0.6,0.46-0.81c1.58-0.53,1.97-1.16,1.88-1.5c-0.21-0.82-0.28,0-0.23-0.86
		c0.02-0.34,0.42-0.81,0.75-1.21c1.07-1.29,1.83-0.81,2.1-0.69c0.62-0.48,0.73-0.45,1.31-0.68c0.99-0.39,3.14,0.26,4.34,0.81
		c0.58,0.26,1.28,0.42,1.95,0.27c-0.01,0.35-0.25,0.54-0.5,0.61c-0.37,0.12-0.82,0-0.79,0.27c0.02,0.16,0.53,0.19,0.85,0.28
		c1.78,0.49,4.08,2.08,2.57,1.74c-0.18-0.04,1.09,0.95,2.05,2.23l3.39,3.29c-0.16,0.19-1.34,0.02-5.11-3.51
		c-0.54,0.48,4.58,4.33,6.69,8.42c-0.18,0.13-2.81-0.83-3.76-1.81c-1.46-1.51-3.14-5.36-3.83-4.79c-0.08,0.03,2.78,4.49,4.19,7.13
		c0.71,1.34,1.3,3.25,1.35,4.7c0.23,7.12-0.85,6.57-0.84,6.57c-1.67-5.61-2.45-12.12-4.88-15.13
		C96.97,82.82,100.54,89.27,100.69,95.1L100.69,95.1z M93.32,101.5c-0.75,0.66-1.24,0.89-1.08,0.57c0.18-0.37,0.32-0.67,0.42-0.95
		C92.7,101.02,93.32,101.5,93.32,101.5L93.32,101.5z M92.83,100.61c0.17-0.6,0.17-1.01,0.24-1.54c0.03-0.23,0.04-0.2,0.05-0.39
		c0-0.06,1.63,1.35,1.72,1.41c-0.41,0.51-0.76,0.7-1.15,1.06C93.42,100.92,92.81,100.67,92.83,100.61L92.83,100.61z M98.11,102.42
		c-2.26,2.23-5.65,1.42-8.32,2.62c-2.42,0.88-4.17,3.12-6.71,3.69c-0.75,0.24-0.87,0.61-0.39,0.6c0.28-0.01,1.83,1.61,4.3,0.36
		c0.83-0.42,3.39-1.85,3.83-1.93c-1.39,1.32-2.09,2.51-3.33,3.2c-0.76,0.43-3.86,1.53-6.94,0.93c-1.37-0.27-2.42,1-2.07,0.97
		c0.73-0.2,1.55-0.1,2.05,0.55c0.9,0.7,2.19,1.58,3.31,0.27c0.37-0.43,2.14-1.35,3.81,0.34c-1.77-0.09-1.6,3.09-4.95,2.72
		c-1.24-0.01-3.99-2.85-4.77-1.97c-1.39,1.56,2.98,3.04,1.09,5c-1.71,1.77-3.75-1.41-3.75-1.41c1.07,0.45,3.03,0.74,2.17-1
		c-0.34-0.69-1-1.31-1-2.58c-0.15-0.63-4.06,5.04-6.65,2.48c-1.02-1.01-3.08-3.21-4.94-4.05c4.94-0.42,5.69,1.56,5.93,1.87
		c1.58,2.13,3.04-0.03,3.38-0.41c0.51-0.59,1.24-1.39,0.98-1.51c-1.92-0.91-4.1-1.1-5.74-0.35c3.5-4.81,6.22-0.31,6.22-0.31
		c0.38,0.24-0.1-2.85-3.56-3.02c-2.16-0.11-4.06,1.84-5.56,1.84c-1.21,0-4.89-2.48-5.75-4.69c2.14,1.6,4.87,2.52,6.57,1.5
		c3.2-1.91,7.22,0.97,7.41,0.62c-0.89-0.7-2.93-3.42-8.42-1.87c-2.13,1.22-3.03-0.91-4.33-0.94c2.22-1.97,3.77-0.97,4.54-0.91
		c0.18,0-0.93-0.92-1.71-1c-6.06-0.63-9.91-2.3-9.91-2.3c-0.03,0,0.51-1.22,3.11-0.34c0,0-2.34-1.43-2.32-3.27
		c0.08-1.13,0.62-2.35-0.24-3.29c3.52-0.14,1.02,4.76,3.49,6.03c0.05,0.02-0.73-1.17,0.37-2.1c0.51,1.44,1.77,2.19,2.65,2.42
		c0.21-0.11,0.46-0.56,0.46-0.55c-0.93-1.54-1.05-3.33-0.8-5.38l0.04-0.02c0.2,0.01,0.54,0.71,0.78,1.22c0.51,1.1,0.5,2.69,1.52,4
		c0.57,0.72,0.92,1.44,1.43,1.79c0.22-0.51,0.06-1.39,0.02-1.62c-0.12-0.83-0.64-2.29,0.79-3.58c0.67,1.92,1.57,1.37,1.7,2.29
		c0.17,1.29,0.11,1.09-0.02,2.08c0.07,1.37,1.31,1.75,2.41,2.63c2.49,1.35,4.14,2.09,5.22,3.82c0.53-2.93-7.37-3.51-6.35-9.16
		c-0.11-2.25,0.28-2.44-1.32-3.82c3.17,0.09,4.9,5.29,5.07,6.24c0.32,1.74,1.38,1.83,2.83,4.11c0.21,0.08-2.6-6.06,0.75-11.31
		c0,0,1.13,2.73,0.6,4.52c-0.32,1.08-0.02,2.27,0.04,2.95c0.06,0.69-0.14-2.49,2.25-4.13c0.15,1.2,1.3,3.07,0.21,5.06
		c-1.33,2.43-1.43,1.56-1.45,4.54c0.12-0.05,0.46-2.06,1.38-3.2c1.93-2.41,0.55-3.7,2.43-5.79c0.15,1.04,0.42,0.63,0.53,1.56
		c0.25,2.09-1.93,4.37-1.44,4.3c0.55-0.08,1.44-0.56,1.74-2.14c0,0,0.8,1.44,0.07,1.93c-1.33,0.87-1.61,1.81-1.4,2.87
		c1.07-1.27,2.52-2.68,2.27-4.5c0.12-1.09,1.31-1.54,1.54-4.08c0.04-0.42,0.46-0.93,0.88-1.16c-0.18,1.43,0.93,2.91-0.34,4.65
		c0.29,0.15,1.35-1.36,2.91-0.81c-3.13,0.56-2.22,3.96-4.61,5.52c-0.72,0.47-0.6,1-0.82,1.06c2.14-0.12,3.79-2.67,4.08-2.87
		c2.15-1.46,2.62-1.68,3.48-4.04c0.34-0.9,0.09-1.29,1.28-2.5c0.52,1.19-0.24,3.67-0.42,4.2c-0.39,1.14-1.74,2.12-1.45,2.12
		c5.77-2.55,5.7-4.26,7.08-6.08c0.41-0.7,2.47-1.91,3.23-2.02c-0.19,0.38-0.99,1.02-1.02,1.71c-0.07,1.27-0.48,2.05-1.13,3.08
		c0.36,0.45,1.05-0.84,1.75-0.19C99.25,100.78,98.83,101.81,98.11,102.42L98.11,102.42z M99.07,102.09
		c-0.34,1.68-0.92,3.24-1.93,4.69c-0.71,1.03-1-0.97-0.39-2.9C97.62,103.53,98.49,102.85,99.07,102.09L99.07,102.09z M94.68,59.44
		c-0.13-0.05-0.41-0.1-0.59-0.1c-0.18,0-0.27,0.25-0.05,0.31c0.14,0.04,0.4,0.08,0.65,0.1C94.86,59.76,94.81,59.49,94.68,59.44
		L94.68,59.44z M94.03,60.25c0.14,0.04,0.39,0.08,0.65,0.1c0.16,0.02,0.11-0.25-0.02-0.3c-0.13-0.05-0.41-0.1-0.58-0.1
		C93.89,59.94,93.81,60.18,94.03,60.25L94.03,60.25z M94.03,63.92c-0.13-0.15-0.47-0.43-0.78-0.65c-0.18,0.15-0.54,0.41-0.77,0.53
		c-0.17-0.19-0.4-0.46-0.75-0.74c-0.21,0.14-0.82,0.7-1.07,0.84c0.37,0.01,0.92,0.13,0.94,0.48c0.01,0.28-0.02,2.02,0,2.34
		c0.23,0.05,0.49,0.03,0.82,0.01c0.02-0.25,0.01-2.25,0.02-2.49c0.11-0.06,0.24-0.12,0.3-0.18c0.13,0.09,0.51,0.54,0.74,0.66
		c0.15-0.12,0.56-0.47,0.73-0.64C94.39,63.89,94.19,63.77,94.03,63.92L94.03,63.92z M93.01,61c0.21-0.38,0.52-1,0.5-1.47
		c-0.03-0.58-0.38-1.43-1.23-1.72c-1.07,0.38-1.74,1.23-1.77,2.23c-0.02,0.59,0.48,1.79,1.51,1.8C92.34,61.55,92.68,61.22,93.01,61
		L93.01,61z M92.36,61.23c-0.2-0.1-0.92-0.66-1.09-1.09c-0.22-0.58-0.22-1.22,0.4-1.59c0.48,0.18,1.04,0.65,1.09,1.08
		C92.82,60.2,92.66,60.86,92.36,61.23L92.36,61.23z M92.33,56.76l0.77-0.84c0,0-0.34-0.27-0.55-0.52c0-0.18,0-1.87,0.07-1.96
		c-0.58-0.52-1-0.58-1.25-0.55c-0.47,0.07-0.95,0.67-1.1,0.88c-0.11,0.16-0.08,0.36,0,0.43c0.09,0.08,0.21,0.15,0.34,0.23
		c-0.02-0.01-0.04-0.03-0.06-0.04c-0.22,0.21-0.54,0.8-0.53,1.21c0,0.41,0.37,1,0.62,1.22c0.27-0.21,0.68-0.56,1.27-0.68
		C91.97,56.43,92.11,56.6,92.33,56.76L92.33,56.76z M91.87,54.81c-0.38-0.14-1.13-0.49-1.4-0.71c-0.07-0.06-0.08-0.09,0.01-0.23
		c0.17-0.26,0.37-0.48,0.51-0.47c0.12,0,0.88,0.41,0.86,0.62C91.86,54.17,91.87,54.49,91.87,54.81L91.87,54.81z M91.87,55.96
		c-0.2,0.01-0.37,0.06-0.62,0.18c-0.21-0.17-0.75-0.82-0.35-1.55c-0.06-0.03-0.11-0.06-0.17-0.1c0.37,0.21,0.79,0.38,1.13,0.49
		c0,0.29-0.01,0.55-0.01,0.65C91.85,55.76,91.86,55.86,91.87,55.96L91.87,55.96z M89.65,52.49c-0.18,0-1.4,0.03-1.43-0.04
		c-0.09-0.26-0.11-0.58,0.1-1.02c0.1-0.22-0.1-0.31-0.18-0.09c-0.08,0.22-0.69,1.06-1.32,1.33c-0.33,0.13,0.4,0.43,0.35,0.42
		c0,0.81,0.11,2.03,0.29,2.52c0.11,0.29,0.44,0.76,0.67,0.62c0.15-0.09,0.47-0.73,0.57-0.81c0.18-0.14,0-0.39-0.14-0.24
		c-0.16,0.14-0.3-0.08-0.35-0.23c-0.05-0.14-0.2-1.93-0.13-1.97c0,0,1.44-0.17,1.59-0.17C89.75,52.8,89.76,52.49,89.65,52.49
		L89.65,52.49z M85.69,55.78l0.6-0.77c-0.43-0.07-0.61-0.15-0.91-0.5l0.01-1.92l-0.61-0.61L84.57,52l-0.96,0.84
		c-0.1,0.15,0.16,0.15,0.29-0.03l0.69,0.4l0.03,1.86c0.05,0.22,0.24,0.44,0.51,0.71H85.69L85.69,55.78z M85.17,51.51l0.33-0.29
		v-0.47l-0.45-0.44l-0.45,0.38l0.01,0.54l0.28,0.28H85.17L85.17,51.51z M83.64,50.92c-0.26-0.03-1.1,0.04-1.41,0.09
		c-0.31,0.05-0.31,0.2-0.05,0.23c0.25,0.03,0.3,0.08,0.44,0.42c0.12,0.34-0.49,1.9-0.64,2.27c-0.18-0.27-0.83-1.69-0.83-1.89
		c0-0.14,0.29-0.28,0.41-0.31c0.24-0.07,0.23-0.24,0.05-0.27c-0.51-0.07-2.29-0.23-2.61-0.27c-0.23-0.02-0.33,0.24-0.06,0.24
		c0.29,0.01,0.58-0.08,0.9,0.38c0.36,0.52,1.49,2.95,1.76,3.97c0.13-0.22,1.26-3.49,1.33-3.84c0.08-0.34,0.32-0.67,0.65-0.77
		C83.93,51.09,83.9,50.94,83.64,50.92L83.64,50.92z M78.28,58.84c0.02,1.36,0.56,1.48,1.18,1.83c0.59,0.33,1.57,0.27,2.31,0.07
		c0.28-0.08,0.43-0.1,0.42,0.14c0,0.15,0.21,0.12,0.21,0.01c0-0.11,0.01-1.25,0.01-1.38c0-0.14-0.21-0.12-0.21,0
		c0,0.19,0,0.25-0.19,0.52c-0.51,0.75-1.78,0.72-2.46-0.2c-0.23-0.31-0.45-0.73-0.18-0.81c0.27-0.08,1.09,0.09,1.63,0.13
		c0.32,0.02,1.07,0.1,1.17,0.15c0.08,0.06,0.21,0.14,0.21-0.02c0.01-0.16,0.01-0.69,0.01-0.85c0-0.16-0.12-0.08-0.21-0.03
		c-0.09,0.06-0.89,0.2-1.21,0.25c-0.32,0.06-1.31,0.14-1.57,0.05c-0.27-0.09-0.18-0.62,0.06-0.93c0.69-0.91,2.08-0.85,2.59-0.09
		c0.17,0.26,0.17,0.33,0.17,0.52c0,0.12,0.2,0.13,0.2,0c0.01-0.13,0.02-1.51,0.02-1.62c0-0.11-0.2-0.15-0.2,0
		c0,0.1-0.22,0.16-0.44,0.1c-0.43-0.14-1.69,0.06-2.25,0.37C79.04,57.35,78.27,58.01,78.28,58.84L78.28,58.84z M78.52,61.25
		c0.02,0.39,0.16,3.72,0.12,4.18c-0.03,0.26,0.33,0.54,0.65,0.76c0.16-0.19,0.5-0.69,0.78-0.9c0.17-0.14,0.05-0.23-0.08-0.18
		c-0.25,0.12-0.51,0.03-0.54-0.27c-0.02-0.29-0.02-3.16,0-3.57C79.26,61.28,78.71,61.27,78.52,61.25L78.52,61.25z M81.27,63.98
		c-0.22,0.21-0.62,0.75-0.61,1.15c0.01,0.41,0.2,0.8,0.44,1.02c0.4-0.28,0.66-0.67,1.33-0.93c0.08,0.31,0.3,0.36,0.57,0.56
		c0.16-0.17,0.73-0.87,0.85-1c0.13-0.12,0.05-0.24-0.13-0.12c-0.18,0.12-0.3,0.05-0.6-0.28c0.01-0.18-0.02-1.61,0.05-1.69
		c-0.27-0.29-0.53-0.7-0.85-0.67c-0.47,0.04-1.07,0.86-1.22,1.07c-0.12,0.15,0.01,0.74,0.09,0.82
		C81.23,63.95,81.24,63.95,81.27,63.98L81.27,63.98z M81.6,64.21c0.26,0.15,0.39,0.06,0.8,0.01c0,0.26-0.01,0.49-0.01,0.61
		c-0.18,0.13-0.4,0.24-0.66,0.37C81.54,65.04,81.24,64.9,81.6,64.21L81.6,64.21z M81.39,63.03c0.17-0.26,0.28-0.31,0.42-0.31
		c0.12,0.01,0.6,0.34,0.58,0.56c0.02,0.14,0.03,0.44,0.03,0.75c-0.36,0.04-0.61,0.08-1.01-0.25C81.32,63.71,81.3,63.17,81.39,63.03
		L81.39,63.03z M84.27,62.5c-0.3,0.15,0.41,0.43,0.36,0.42c-0.01,0.81-0.17,2.13,0.11,2.54c0.17,0.26,0.56,0.42,0.82,0.32
		c0.25-0.1,0.57-0.6,0.67-0.68c0.19-0.14,0.03-0.29-0.13-0.14c-0.15,0.14-0.57,0.04-0.63-0.1c-0.04-0.15-0.1-1.91-0.02-1.95
		c0,0,0.5-0.01,0.64-0.01c0.11,0,0.11-0.32,0.01-0.32c-0.18,0-0.59-0.04-0.61-0.11c-0.06-0.17,0.01-0.7,0.12-0.92
		c0.11-0.22-0.1-0.32-0.18-0.1C85.33,61.69,84.81,62.24,84.27,62.5L84.27,62.5z M84.42,58.84c0.03,0.76-0.37,1.56-0.8,1.93
		c0.75-0.19,0.84-0.64,1.25-1.16c0.23,0.33,0.64,0.74,0.95,0.91c0.22-0.14,0.83-0.83,0.96-0.97c-0.44-0.12-1.29-0.57-1.5-1.04
		c-0.17-0.35-0.13-0.52,0.04-0.8c0.15,0.2,1.18,0.67,1.65-0.12c-0.51-0.19-0.97-0.52-1.12-0.79c-0.14,0.11-0.59,0.61-0.85,0.76
		c-0.06-0.27-0.48-0.57-0.82-0.63c-0.11,0.12-0.91,0.73-1.27,0.9c-0.11,0.05-0.07,0.3,0.09,0.24c0.15-0.06,0.39-0.25,0.68-0.39
		C84.01,57.82,84.38,58.15,84.42,58.84L84.42,58.84z M87.99,58.97c0.09-0.46,0.42-0.65,0.56-0.79c0.21,0.23,0.42,0.5,0.74,0.5
		c0.31,0,0.63-0.14,0.73-0.27c-0.26-0.21-0.84-0.82-0.95-0.93c-0.29,0.16-1.57,0.83-1.68,1.6c-0.16,1.13,0.2,1.36,0.7,1.98
		c0.28,0.35,0.75,0.37,0.96,0.31c0.23-0.16,1.07-0.95,1.16-1.05c0.08-0.1-0.04-0.19-0.14-0.09c-0.1,0.1-0.06,0.14-0.2,0.16
		c-0.14,0.02-0.71,0.12-1.04-0.05C88.41,60.1,87.87,59.59,87.99,58.97L87.99,58.97z M87.36,62.58c-0.19,0.19-0.52,0.41-0.83,0.76
		c0.26,0.02,0.47,0.07,0.59,0.32c0.13,0.24,0.02,1.27,0.04,1.67c0.02,0.38,0.25,0.47,0.56,0.78c0.3-0.08,1.15-0.43,1.44-0.63
		c-0.03,0.32,0.37,0.67,0.61,0.74c0.16-0.17,0.33-0.27,0.56-0.48c-0.23-0.15-0.2-0.17-0.28-0.47c-0.07-0.29,0.02-1.39,0.02-1.86
		c-0.18-0.27-0.47-0.6-0.78-0.82c-0.21,0.19-0.5,0.45-0.84,0.81c0.25-0.03,0.74,0.07,0.77,0.28c0.02,0.27,0.06,0.87,0,1.33
		c-0.06,0.47-1.31,0.25-1.33-0.06c-0.03-0.32,0.06-1.25,0.07-1.69C87.8,62.97,87.69,62.82,87.36,62.58L87.36,62.58z M79.05,73.85
		V73.8c-0.72-0.1-1.29-0.61-1.96-0.86c-0.92-0.35-1.89,0.36-1.89,0.47c0,0.25,0.26,0.37,1-0.09c-0.58,0.67,0.08,1.22,0.08,1.22
		c-0.24-0.04-0.59-0.12-0.81-0.24c-0.04,0.24,0.29,0.33,0.45,0.44C77.16,75.24,77.97,74.06,79.05,73.85L79.05,73.85z M76.97,74.47
		c0,0,0.33-0.35,0.33-0.61c0-0.34-0.32-0.59-0.32-0.59c0.28,0.08,0.94,0.45,1.17,0.61L76.97,74.47L76.97,74.47z M70.23,65.15
		l0.35-0.39c-0.4-0.07-0.21-0.07-0.42-0.26l-0.01-1.62l-0.52-0.76l-0.2,0.03l-0.81,0.76c-0.21,0.19-0.02,0.28,0.22,0.07l0.54,0.28
		l0.01,1.71c0.04,0.21,0.23,0.26,0.49,0.53L70.23,65.15L70.23,65.15z M70.41,59.52c0.27,0.78,0.92,1.02,1.4,1.06
		c0.14-0.27,0.41-0.67,0.55-0.86c0.22-0.29,0-0.46-0.16-0.13c-0.12,0.25-0.74-0.02-0.96-0.24c-0.3-0.28-0.49-1.02-0.25-1.28
		c0.24-0.26,0.59-0.14,1.04-0.16c0.3-0.01,0.36-0.29,0.41-0.43c-0.14-0.07-0.36-0.19-0.64-0.36c-0.29,0.19-0.74,0.57-0.93,0.73
		C70.63,58.06,70.14,58.77,70.41,59.52L70.41,59.52z M71.58,63.79c-0.29,0.3-0.51,0.63-0.51,1.05c0.01,0.4,0.15,0.8,0.55,0.98
		c0.36-0.27,0.82-0.59,1.27-0.67c0.22,0.26,0.55,0.44,0.76,0.6c0.14-0.17,0.58-0.53,0.71-0.64c0.12-0.12,0-0.29-0.12-0.13
		c-0.09,0.14-0.41,0.04-0.5-0.11c0-0.17-0.16-1.96-0.09-2.05c-0.26-0.29-0.71-0.94-1.01-0.91c-0.44,0.04-1.09,0.67-1.23,0.87
		c-0.11,0.15,0.03,0.89,0.12,0.96C71.55,63.77,71.56,63.77,71.58,63.79L71.58,63.79z M72.73,63.95c-0.33,0.01-0.61-0.09-0.97-0.41
		c-0.07-0.06-0.13-0.47-0.05-0.6c0.16-0.25,0.16-0.33,0.3-0.33c0.11,0,0.77,0.4,0.74,0.62C72.76,63.38,72.75,63.67,72.73,63.95
		L72.73,63.95z M71.85,64.01c0.3,0.2,0.48,0.18,0.86,0.14c-0.02,0.21-0.03,0.4-0.03,0.48c0,0.09,0.04,0.16,0.06,0.24
		c-0.2,0.07-0.45,0.11-0.64,0.21C71.93,64.93,71.28,64.49,71.85,64.01L71.85,64.01z M74.34,60.68l0.36-0.39
		c-0.41-0.08-0.41-0.05-0.62-0.24l0.02-1.87l-0.35-0.52l-0.19,0.02l-0.81,0.75c-0.22,0.2-0.02,0.29,0.22,0.07l0.42,0.26l0.02,1.76
		c0.04,0.21,0.23,0.28,0.49,0.55L74.34,60.68L74.34,60.68z M73.71,54.13c-0.17-0.01-0.42,0.3,0.56,0.4
		C74.42,54.55,74.62,54.19,73.71,54.13L73.71,54.13z M73.72,53.55c-0.16-0.01-0.41,0.44,0.56,0.4
		C74.43,53.94,74.55,53.59,73.72,53.55L73.72,53.55z M73.91,56.49l-0.42-0.43l-0.42,0.38l0.01,0.52l0.26,0.26h0.26l0.31-0.28V56.49
		L73.91,56.49z M73.05,52.48c-0.28-0.2-0.59-0.67-1.28-0.7c-0.69-0.03-1.47,0.6-1.72,0.99c-0.34,0.52,0.08,0.97,0.51,1.31
		c-0.28,0.24-0.67,0.61-1.03,0.95c0.14,0.16,0.93,0.53,1.38,0.52c0.67-0.02,1.29-0.36,1.67-0.67c0.7-0.55,0.46-1.14-0.25-1.55
		c-0.07-0.04-0.13-0.05-0.2-0.07C72.57,52.92,72.96,52.61,73.05,52.48L73.05,52.48z M71.29,53.93c0.23,0.1,0.47,0.21,0.73,0.36
		c0.37,0.21,0.18,0.61-0.22,0.8c-0.41,0.19-1.14-0.34-1.26-0.56C70.69,54.4,70.98,54.18,71.29,53.93L71.29,53.93z M72.03,52.94
		c-0.06,0.05-0.24,0.19-0.43,0.34c-0.11,0.02-0.23,0.03-0.34,0.02c-0.35-0.05-0.52-0.31-0.68-0.53c-0.17-0.22,0.26-0.41,0.48-0.38
		C71.27,52.42,71.75,52.68,72.03,52.94L72.03,52.94z M69.15,54.46c-1.03,0.26-1.51-0.56-1.61-0.78c0.41-0.42,1.12-1.12,1.55-1.47
		c-0.28-0.26-0.4-0.69-0.91-0.73c-0.44,0.01-1.47,0.51-1.65,1.81c-0.17,1.25,1,1.93,1.93,1.96c0.31,0,0.7-0.4,0.89-0.5
		C69.77,54.55,69.62,54.35,69.15,54.46L69.15,54.46z M67.46,53.43c-0.26-0.83-0.16-1.12,0.36-1.53c0.12,0.29,0.41,0.49,0.58,0.59
		C68.11,52.78,67.65,53.29,67.46,53.43L67.46,53.43z M66.28,52.69c0.18-0.17-0.01-0.3-0.17-0.15c-0.12-0.14-0.41-0.44-0.57-0.63
		c-0.17,0.14-0.55,0.37-0.77,0.49c-0.17-0.19-0.38-0.19-0.71-0.46c-0.19,0.14-0.6,0.45-0.82,0.72c0.39,0.11,0.69,0.14,0.71,0.47
		c0.01,0.27-0.03,1.96-0.01,2.27c0.21,0.05,0.47,0.02,0.77,0.01c0.02-0.24,0.01-2.36,0.01-2.59c0.11-0.06,0.23-0.12,0.28-0.18
		c0.12,0.09,0.37,0.45,0.57,0.57C65.72,53.1,66.11,52.86,66.28,52.69L66.28,52.69z M63.04,57.06c-0.45,0.04-1.09,0.56-1.28,1.01
		c-0.08,0.18,0.03,0.83,0.11,0.9c0.06,0.05,0.1,0.09,0.15,0.13c-0.29,0.27-0.57,0.5-0.56,0.91c0.01,0.39,0.32,0.74,0.72,0.92
		c0.21-0.33,0.55-0.53,0.91-0.61c0.03,0.31,0.1,0.54,0.31,0.69c0.15-0.16,0.73-0.67,0.85-0.78c0.12-0.12,0.03-0.26-0.11-0.12
		c-0.09,0.08-0.3-0.04-0.36-0.14c0-0.17,0-1.96,0.08-2.04C63.59,57.64,63.34,57.03,63.04,57.06L63.04,57.06z M63.07,58.88
		c-0.5,0.32-0.66,0.31-1-0.07c-0.17-0.2-0.15-0.57-0.08-0.71c0.15-0.24,0.42-0.49,0.55-0.48c0.11,0.01,0.51,0.49,0.48,0.71
		C63.06,58.44,63.07,58.65,63.07,58.88L63.07,58.88z M63.08,59.78c0,0.1,0,0.18,0,0.27c-0.1,0.02-0.2,0.05-0.34,0.11
		c-0.18-0.15-1.05-0.44-0.48-0.89c0.35,0.2,0.48,0.04,0.82-0.16C63.08,59.4,63.08,59.67,63.08,59.78L63.08,59.78z M62.69,55.98
		c-0.06-0.08-0.18-0.2-0.18-0.36c0-0.1,0.01-1.18,0.01-1.32c0-0.13-0.25-0.11-0.25,0c-0.01,0.19,0.02,0.52-0.15,0.78
		c-0.47,0.73-1.38,1.04-2.01,0.14c-0.22-0.3-0.27-0.75-0.29-1.07c-0.04-0.43,0.28-0.99,0.3-1.04c0.81-1.06,1.93-0.27,2.02,0.16
		c0.06,0.29,0.12,0.64,0.12,0.82c-0.01,0.12,0.26,0.11,0.26-0.02c0-0.13,0.01-1.76,0.01-1.87c0-0.11-0.21-0.14-0.22,0
		c-0.01,0.26-0.16,0.28-0.36,0.22c-0.41-0.12-1.31-0.32-1.84-0.01c-0.46,0.27-1.17,0.91-1.16,1.71c0.01,1.32,0.51,1.43,1.09,1.79
		c0.54,0.32,1.29,0.11,1.98-0.09c0.27-0.07,0.31,0.1,0.44,0.29C62.67,56.41,62.85,56.22,62.69,55.98L62.69,55.98z M59.03,57.85
		c-0.46,0.7-0.71,1.8,0.08,2.45c0.37,0.31,0.68,0.55,1.44,0.42c0.15-0.3,0.22-0.4,0.49-0.75c-0.52,0.08-0.93-0.01-1.31-0.3
		c-0.79-0.61-0.54-1.6-0.31-1.93c0.43-0.63,1.03,0.27,1.14,0.39c0.14-0.17,0.38-0.41,0.62-0.59c-0.23-0.31-0.43-0.6-0.59-0.79
		C60.09,56.93,59.35,57.38,59.03,57.85L59.03,57.85z M59.36,63.89c-0.17,1.26,1.02,2,1.59,2.25c0.14-0.29,0.44-0.76,0.72-1.09
		c0.22-0.25-0.02-0.32-0.22-0.13c-0.26,0.29-1.05,0.01-1.25-0.36c0.38-0.29,1.36-1.11,1.79-1.46c-0.28-0.27-0.72-0.93-0.79-1.31
		C60.81,62.06,59.55,62.59,59.36,63.89L59.36,63.89z M60.58,62.53c0.11,0.29,0.48,0.85,0.64,0.94c-0.28,0.28-0.98,0.76-1.17,0.89
		C59.69,63.92,59.5,63.19,60.58,62.53L60.58,62.53z M63.17,62.08c-0.25,0.23-0.44,0.44-0.8,0.73c0.17,0.19,0.45,0.43,0.48,0.76
		c0.02,0.33,0.01,1.88,0.03,2.27c0.26,0,0.22,0.03,0.67,0.01c-0.04-0.26-0.01-2.27-0.01-2.56c0.17-0.16,0.19-0.19,0.39-0.33
		c0.14,0.12,0.47,0.19,0.47,0.41c0,0.22,0.06,1.17-0.01,1.52c-0.09,0.43-0.05,0.74,0.18,1.17c0.18-0.2,0.83-0.66,0.98-0.77
		c0.14-0.12,0.07-0.21-0.11-0.16c-0.19,0.04-0.23,0.08-0.23-0.04c0-0.23-0.09-1.28-0.11-1.95c-0.02-0.67-0.35-0.87-0.54-0.96
		c-0.19,0.21-0.62,0.48-0.88,0.7C63.48,62.73,63.39,62.41,63.17,62.08L63.17,62.08z M65.87,60.46c0.23-0.18,0.39-0.48,0.48-0.56
		c0.17-0.14,0.03-0.29-0.12-0.15c-0.12,0.11-0.42-0.15-0.44-0.17c-0.1-0.12-0.25-1.65-0.18-1.68c0,0,0.97-0.12,1.1-0.12
		c0.1,0.01,0.11-0.3,0.01-0.31c-0.16,0-0.9,0.1-0.93,0.03c-0.04-0.16-0.14-0.71,0.1-1.18c0.11-0.2,0-0.4-0.08-0.19
		c-0.09,0.21-0.7,1.16-1.09,1.32c-0.32,0.13-0.29,0.21-0.08,0.26c0.16,0.03,0.34,0.23,0.3,0.23c-0.03,0.79-0.11,1.76,0.13,2.17
		C65.25,60.36,65.67,60.63,65.87,60.46L65.87,60.46z M69.22,60.8c-0.12,0.24-0.31,0.46-0.67,0.62c0.22,0.19,0.5,0.43,0.68,0.55
		c0.21-0.24,0.41-0.46,0.65-0.69C69.64,61.24,69.36,61.11,69.22,60.8L69.22,60.8z M67.68,59.94c0.31-0.03,0.81,0.16,1.36,0.11
		c0.66-0.05,1.17-1.07,0.89-1.86c-0.26-0.75-1.1-0.62-1.67-0.8c-0.52-0.14-0.73-0.47-0.17-0.84c0.67-0.43,1.49,0.26,1.57,0.41
		c0.12,0.22,0.22,0.22,0.22-0.07c0.02-0.62-0.04-0.27-0.1-0.86c-0.02-0.21-0.17-0.23-0.19-0.03c-0.01,0.2-0.26,0.14-0.45,0.14
		c-0.19,0-0.75-0.09-1.23,0.18c-0.31,0.18-1,0.73-0.61,1.38c0.23,0.38,1.57,0.7,1.91,0.92c0.34,0.22,0.41,0.78,0.09,1.04
		c-0.4,0.32-1.49,0.05-1.65-0.14c-0.22-0.24-0.3-0.44-0.35-0.73c-0.05-0.29-0.29-0.26-0.29,0c0,0.26,0.06,1.17,0.11,1.38
		c0.04,0.22,0.26,0.15,0.28-0.02C67.43,59.99,67.54,59.95,67.68,59.94L67.68,59.94z M66.27,62.75c-0.26,0.19,0.3,0.46,0.25,0.44
		c0.02,0.79-0.09,1.6,0.17,2c0.17,0.25,0.7,0.43,0.79,0.19c0.09-0.24,0.49-0.73,0.58-0.81c0.17-0.15,0.02-0.28-0.12-0.14
		c-0.29,0.31-0.45,0.17-0.67-0.04c-0.1-0.12-0.14-1.22-0.07-1.25c0,0,0.53-0.08,0.66-0.08c0.1,0,0.09-0.31-0.01-0.31
		c-0.16,0-0.63,0-0.66-0.07c-0.06-0.15,0.09-0.9,0.12-1.23c0.02-0.23-0.1-0.31-0.17-0.09C67.08,61.59,66.57,62.53,66.27,62.75
		L66.27,62.75z"/>
</g>
<g id="TM" class="st0">
	<g class="st1">
		<path class="st3" d="M449.05,116.2h-2.67v-1.37h6.82v1.37h-2.67v7.04h-1.49V116.2z"/>
		<path class="st3" d="M454.77,114.83h1.57l2.56,3.98l2.56-3.98h1.57v8.41h-1.48v-6.03l-2.65,3.96h-0.05l-2.63-3.94v6.01h-1.45
			V114.83z"/>
	</g>
</g>
</svg>
